# File created by Blade
# Date/Time:  Wed Jan 21 14:55:15 2015
# Frame Rate: 120.000 fps
#------------------------------------------------------
:FULLY-SPECIFIED
:DEGREES
1245
root 20.664522 35.407753 -23.918889 -173.272502 -0.133308 -178.934782
Spine -18.867968 -0.341887 0.754955
Head 13.091447 -2.490932 0.174626
LeftShoulder -14.759952 -29.591262 18.169341
LeftArm 7.579271 2.250385 -11.126737
LeftForeArm 6.521915 -0.000000 -2.590219
LeftHand -10.001669 -0.000000 -2.550195
LeftHandThumb1 -26.253704 0.000000 33.147579
RightShoulder -13.345716 -5.513144 -7.756250
RightArm 12.273989 39.515430 16.929726
RightForeArm -33.701203 0.000000 5.826908
RightHand -10.347796 -0.000000 4.238355
RightHandThumb1 -24.326973 -0.000000 -32.862282
LeftUpLeg 3.046469 14.146767 2.755422
LeftLeg -6.767194 -0.000000 0.000000
LeftFoot -20.642799 25.590259 -14.737326
LeftToeBase 26.082161 -0.000000 -0.000000
RightUpLeg 0.574772 -12.169429 -2.715793
RightLeg -3.765697 -0.000000 0.000000
RightFoot -19.257537 -21.777770 17.842311
RightToeBase 24.730326 -0.000000 -0.000000
1246
root 20.663608 35.407479 -23.924174 -173.271804 -0.121288 -178.933249
Spine -18.880202 -0.336274 0.759379
Head 13.095639 -2.493987 0.165648
LeftShoulder -14.749155 -29.596668 18.158976
LeftArm 7.560856 2.280570 -11.111484
LeftForeArm 6.512207 -0.000000 -2.588136
LeftHand -10.011388 -0.000000 -2.548073
LeftHandThumb1 -26.253704 0.000000 33.147579
RightShoulder -13.344029 -5.527596 -7.751683
RightArm 12.265368 39.532651 16.908045
RightForeArm -33.874113 -0.000000 5.828435
RightHand -10.305317 -0.000000 4.324690
RightHandThumb1 -24.326973 -0.000000 -32.862282
LeftUpLeg 3.060639 14.167494 2.755634
LeftLeg -6.776258 -0.000000 0.000000
LeftFoot -20.651362 25.580909 -14.754041
LeftToeBase 26.066743 -0.000000 -0.000000
RightUpLeg 0.579661 -12.167241 -2.716337
RightLeg -3.766497 -0.000000 0.000000
RightFoot -19.257483 -21.793298 17.817776
RightToeBase 24.715393 -0.000000 -0.000000
1247
root 20.662883 35.407050 -23.929895 -173.275878 -0.110989 -178.930280
Spine -18.886951 -0.324871 0.762109
Head 13.098111 -2.460577 0.175677
LeftShoulder -14.735940 -29.589908 18.157316
LeftArm 7.542908 2.275954 -11.120548
LeftForeArm 6.537836 -0.000000 -2.579872
LeftHand -10.010567 -0.000000 -2.543204
LeftHandThumb1 -26.253704 0.000000 33.147579
RightShoulder -13.355728 -5.543054 -7.755198
RightArm 12.278270 39.479742 16.911662
RightForeArm -33.721532 -0.000000 5.791617
RightHand -10.286087 -0.000000 4.196992
RightHandThumb1 -24.326973 -0.000000 -32.862282
LeftUpLeg 3.082119 14.162138 2.759981
LeftLeg -6.786583 -0.000000 0.000000
LeftFoot -20.650841 25.601845 -14.753635
LeftToeBase 26.027469 -0.000000 -0.000000
RightUpLeg 0.592216 -12.157069 -2.717659
RightLeg -3.769193 -0.000000 0.000000
RightFoot -19.253949 -21.794417 17.824660
RightToeBase 24.723959 -0.000000 -0.000000
1248
root 20.662016 35.406495 -23.934374 -173.276404 -0.098692 -178.927620
Spine -18.894086 -0.320574 0.766361
Head 13.095218 -2.447418 0.171588
LeftShoulder -14.735904 -29.591075 18.166043
LeftArm 7.529249 2.271956 -11.131357
LeftForeArm 6.568391 -0.000000 -2.586962
LeftHand -10.003877 0.000000 -2.545777
LeftHandThumb1 -26.253704 0.000000 33.147579
RightShoulder -13.350099 -5.547605 -7.756603
RightArm 12.250152 39.494194 16.895018
RightForeArm -33.860307 -0.000000 5.865182
RightHand -10.376321 -0.000000 4.367125
RightHandThumb1 -24.326973 -0.000000 -32.862282
LeftUpLeg 3.096504 14.169703 2.763049
LeftLeg -6.794156 -0.000000 0.000000
LeftFoot -20.653905 25.603606 -14.749231
LeftToeBase 26.051765 -0.000000 -0.000000
RightUpLeg 0.592995 -12.164489 -2.717561
RightLeg -3.761494 -0.000000 0.000000
RightFoot -19.269676 -21.784629 17.824896
RightToeBase 24.735988 -0.000000 -0.000000
1249
root 20.660571 35.406234 -23.939115 -173.281775 -0.088611 -178.923580
Spine -18.895099 -0.314874 0.774710
Head 13.092148 -2.419698 0.176696
LeftShoulder -14.733715 -29.595869 18.166281
LeftArm 7.517223 2.298882 -11.137645
LeftForeArm 6.584564 -0.000000 -2.580071
LeftHand -9.989863 -0.000000 -2.588700
LeftHandThumb1 -26.253704 0.000000 33.147579
RightShoulder -13.363013 -5.544801 -7.763345
RightArm 12.278217 39.469931 16.913490
RightForeArm -33.737792 -0.000000 5.828958
RightHand -10.341098 -0.000000 4.239179
RightHandThumb1 -24.326973 -0.000000 -32.862282
LeftUpLeg 3.114128 14.179169 2.766427
LeftLeg -6.800216 -0.000000 0.000000
LeftFoot -20.661167 25.615703 -14.751315
LeftToeBase 26.038207 -0.000000 -0.000000
RightUpLeg 0.602213 -12.155766 -2.718606
RightLeg -3.755561 -0.000000 0.000000
RightFoot -19.269004 -21.775272 17.825278
RightToeBase 24.688779 -0.000000 -0.000000
1250
root 20.659576 35.405834 -23.943383 -173.279441 -0.075794 -178.920305
Spine -18.900747 -0.303796 0.777974
Head 13.080508 -2.422645 0.178441
LeftShoulder -14.734032 -29.581594 18.167951
LeftArm 7.514019 2.317040 -11.149749
LeftForeArm 6.539374 -0.000000 -2.580413
LeftHand -9.969193 -0.000000 -2.583557
LeftHandThumb1 -26.253704 0.000000 33.147579
RightShoulder -13.373988 -5.559905 -7.756070
RightArm 12.280516 39.462806 16.902764
RightForeArm -33.700877 -0.000000 5.829071
RightHand -10.332942 0.000000 4.240035
RightHandThumb1 -24.326973 -0.000000 -32.862282
LeftUpLeg 3.128558 14.191496 2.768558
LeftLeg -6.813888 -0.000000 0.000000
LeftFoot -20.657841 25.609542 -14.754470
LeftToeBase 26.008858 -0.000000 -0.000000
RightUpLeg 0.601766 -12.141075 -2.718853
RightLeg -3.749966 -0.000000 0.000000
RightFoot -19.284394 -21.785213 17.835920
RightToeBase 24.750708 -0.000000 -0.000000
1251
root 20.658638 35.405334 -23.946914 -173.271632 -0.063459 -178.914399
Spine -18.919627 -0.299378 0.788567
Head 13.091372 -2.454266 0.190978
LeftShoulder -14.741823 -29.558494 18.170492
LeftArm 7.521581 2.319212 -11.158774
LeftForeArm 6.583817 -0.000000 -2.587688
LeftHand -10.016933 -0.000000 -2.540344
LeftHandThumb1 -26.253704 0.000000 33.147579
RightShoulder -13.365463 -5.560413 -7.770144
RightArm 12.274371 39.497086 16.920349
RightForeArm -33.760010 -0.000000 5.837630
RightHand -10.341811 -0.000000 4.228268
RightHandThumb1 -24.326973 -0.000000 -32.862282
LeftUpLeg 3.133711 14.206559 2.771068
LeftLeg -6.824408 -0.000000 0.000000
LeftFoot -20.664234 25.609651 -14.758173
LeftToeBase 26.075745 -0.000000 -0.000000
RightUpLeg 0.591287 -12.140103 -2.714489
RightLeg -3.738476 -0.000000 0.000000
RightFoot -19.288256 -21.767885 17.845820
RightToeBase 24.741853 -0.000000 -0.000000
1252
root 20.657643 35.405126 -23.951748 -173.277049 -0.066759 -178.913408
Spine -18.912426 -0.307855 0.789326
Head 13.066884 -2.403403 0.205035
LeftShoulder -14.762073 -29.558349 18.194620
LeftArm 7.522322 2.330815 -11.187314
LeftForeArm 6.574844 -0.000000 -2.580797
LeftHand -10.034136 -0.000000 -2.548622
LeftHandThumb1 -26.253704 0.000000 33.147579
RightShoulder -13.371641 -5.578721 -7.746856
RightArm 12.268219 39.527257 16.890670
RightForeArm -33.868530 0.000000 5.863258
RightHand -10.365521 -0.000000 4.334208
RightHandThumb1 -24.326973 -0.000000 -32.862282
LeftUpLeg 3.152906 14.195409 2.773794
LeftLeg -6.835978 -0.000000 0.000000
LeftFoot -20.662729 25.622898 -14.750795
LeftToeBase 26.036578 -0.000000 -0.000000
RightUpLeg 0.607029 -12.139162 -2.716548
RightLeg -3.743663 -0.000000 0.000000
RightFoot -19.282950 -21.775905 17.847279
RightToeBase 24.727125 -0.000000 -0.000000
1253
root 20.657235 35.404956 -23.954997 -173.270781 -0.070855 -178.912175
Spine -18.919871 -0.311233 0.789343
Head 13.056166 -2.382100 0.223334
LeftShoulder -14.774862 -29.567673 18.202809
LeftArm 7.529600 2.353105 -11.201778
LeftForeArm 6.493616 -0.000000 -2.571211
LeftHand -9.978976 -0.000000 -2.586821
LeftHandThumb1 -26.253704 0.000000 33.147579
RightShoulder -13.382685 -5.565268 -7.755663
RightArm 12.270801 39.520397 16.910182
RightForeArm -33.776865 -0.000000 5.841813
RightHand -10.342746 0.000000 4.216279
RightHandThumb1 -24.326973 -0.000000 -32.862282
LeftUpLeg 3.155303 14.176039 2.775078
LeftLeg -6.844216 -0.000000 0.000000
LeftFoot -20.669771 25.635381 -14.770888
LeftToeBase 26.039947 -0.000000 -0.000000
RightUpLeg 0.602735 -12.157109 -2.715864
RightLeg -3.735061 -0.000000 0.000000
RightFoot -19.290316 -21.755589 17.861748
RightToeBase 24.699022 -0.000000 -0.000000
1254
root 20.655902 35.404795 -23.958530 -173.271634 -0.067904 -178.912772
Spine -18.921876 -0.311678 0.790107
Head 13.053466 -2.384441 0.227495
LeftShoulder -14.773583 -29.548378 18.195912
LeftArm 7.527989 2.336293 -11.208764
LeftForeArm 6.479959 -0.000000 -2.557240
LeftHand -10.018746 -0.000000 -2.583690
LeftHandThumb1 -26.253704 0.000000 33.147579
RightShoulder -13.373703 -5.545224 -7.754774
RightArm 12.224482 39.528309 16.872036
RightForeArm -33.852249 -0.000000 5.872617
RightHand -10.297889 -0.000000 4.415062
RightHandThumb1 -24.326973 -0.000000 -32.862282
LeftUpLeg 3.168749 14.177464 2.773843
LeftLeg -6.855607 -0.000000 0.000000
LeftFoot -20.670943 25.633854 -14.779844
LeftToeBase 26.055336 -0.000000 -0.000000
RightUpLeg 0.603679 -12.157270 -2.719914
RightLeg -3.726135 -0.000000 0.000000
RightFoot -19.296681 -21.765702 17.841802
RightToeBase 24.743859 -0.000000 -0.000000
